{
  "accessors": [
    {
      "bufferView": 2,
      "componentType": 5126,
      "count": 192,
      "max": [
        744.7998046875,
        496.8216857910156,
        400.3219299316406
      ],
      "min": [
        2.5816900158480427e-13,
        -495.1783142089844,
        -401.6780700683594
      ],
      "type": "VEC3"
    },
    {
      "bufferView": 2,
      "byteOffset": 2304,
      "componentType": 5126,
      "count": 192,
      "max": [
        1.0,
        1.0,
        0.9999818205833435
      ],
      "min": [
        -1.0,
        -1.0,
        -1.0
      ],
      "type": "VEC3"
    },
    {
      "bufferView": 1,
      "componentType": 5126,
      "count": 192,
      "max": [
        0.9914950132369995,
        0.9912216067314148
      ],
      "min": [
        0.008504974655807018,
        0.00877845287322998
      ],
      "type": "VEC2"
    },
    {
      "bufferView": 0,
      "componentType": 5125,
      "count": 204,
      "type": "SCALAR"
    }
  ],
  "asset": {
    "extras": {
      "author": "Daniel O'Neil (https://sketchfab.com/doneil)",
      "license": "CC-BY-4.0 (http://creativecommons.org/licenses/by/4.0/)",
      "source": "https://sketchfab.com/3d-models/macintosh-classic-1991-3b66e98d137d4a23aaa725ce0a8aec28",
      "title": "Macintosh Classic (1991)"
    },
    "generator": "Sketchfab-12.68.0",
    "version": "2.0"
  },
  "bufferViews": [
    {
      "buffer": 0,
      "byteLength": 816,
      "name": "floatBufferViews",
      "target": 34963
    },
    {
      "buffer": 0,
      "byteLength": 1536,
      "byteOffset": 816,
      "byteStride": 8,
      "name": "floatBufferViews",
      "target": 34962
    },
    {
      "buffer": 0,
      "byteLength": 4608,
      "byteOffset": 2352,
      "byteStride": 12,
      "name": "floatBufferViews",
      "target": 34962
    }
  ],
  "buffers": [
    {
      "byteLength": 6960,
      "uri": "scene.bin"
    }
  ],
  
  "meshes": [
    {
      "name": "Mac_Tri_Baked_Mac.Tri.Baked_0",
      "primitives": [
        {
          "attributes": {
            "NORMAL": 1,
            "POSITION": 0,
            "TEXCOORD_0": 2
          },
          "indices": 3,
          "material": 0,
          "mode": 4
        }
      ]
    }
  ],
  "nodes": [
    {
      "children": [
        1
      ],
      "matrix": [
        0.0005979947163723409,
        0.0,
        0.0,
        0.0,
        0.0,
        1.327815005441526e-19,
        -0.0005979947163723409,
        0.0,
        0.0,
        0.0005979947163723409,
        1.327815005441526e-19,
        0.0,
        0.0,
        0.0,
        0.0,
        1.0
      ],
      "name": "Sketchfab_model"
    },
    {
      "children": [
        2
      ],
      "matrix": [
        1.0,
        0.0,
        0.0,
        0.0,
        0.0,
        0.0,
        1.0,
        0.0,
        0.0,
        -1.0,
        0.0,
        0.0,
        0.0,
        0.0,
        0.0,
        1.0
      ],
      "name": "b48207c2117c4690beb1bb0b13114551.fbx"
    },
    {
      "children": [
        3,
        5
      ],
      "name": "RootNode"
    },
    {
      "children": [
        4
      ],
      "matrix": [
        -0.3991887813649455,
        -0.07127587327053204,
        -0.9140941235572474,
        0.0,
        -0.02852507851799162,
        0.9974566406062587,
        -0.06531898656607707,
        0.0,
        0.9164249214899777,
        -3.400058012914542e-16,
        -0.40020665070946526,
        0.0,
        646.616943359375,
        151.22805786132813,
        2465.197265625,
        1.0
      ],
      "name": "CINEMA_4D_Editor"
    },
    {
      "name": "Object_4"
    },
    {
      "children": [
        6
      ],
      "matrix": [
        1.0,
        0.0,
        0.0,
        0.0,
        0.0,
        1.0,
        0.0,
        0.0,
        0.0,
        0.0,
        1.0,
        0.0,
        -371.19036865234375,
        0.0,
        0.0,
        1.0
      ],
      "name": "Mac_Tri_Baked"
    },
    {
      "mesh": 0,
      "name": "Mac_Tri_Baked_Mac.Tri.Baked_0"
    }
  ],
  "samplers": [
    {
      "magFilter": 9729,
      "minFilter": 9987,
      "wrapS": 10497,
      "wrapT": 10497
    }
  ],
  "scene": 0,
  "scenes": [
    {
      "name": "Sketchfab_Scene",
      "nodes": [
        0
      ]
    }
  ],
  "textures": [
    {
      "sampler": 0,
      "source": 0
    }
  ]
}
